# xmcd CD database file
#
# Track frame offsets:
#	150
#	27015
#	48374
#	82600
#
# Disc length: 4440 seconds
#
# Revision: 0
# Processed by: cddbd v1.5.1PL0 Copyright (c) Steve Scherf et al.
# Submitted via: CDex 1.51
#
DISCID=1c115604
DTITLE=安藤裕子 - Lost child,
DYEAR=2005
DGENRE=JPop
TTITLE0=Lost child,
TTITLE1=星とワルツ
TTITLE2=miRu me, kiku me
TTITLE3=CCCD
EXTD=YEAR: 2005
EXTT0=
EXTT1=
EXTT2=
EXTT3=
PLAYORDER=
